REM DIRINDEX 1\2,1\3\7,1\3\8,1\4\9,1\4\10,1\4\11,1\5\12,1\5\13,1\5\14,1\6\15,1\6\16,1\6\17
REM DIRNAME "folder01","folder02","folder03","folder04","folder05","folder06","folder07","folder08","folder09","folder10","folder11","folder12","folder13","folder14","folder15","folder16","folder17"
TITLE ""
FILE "2Q_t_0635-0652.mp3" MP3
  TRACK 01 AUDIO
    TITLE "7:cjc174_3034"
    INDEX 01 00:00:00
  TRACK 02 AUDIO
    TITLE "0:"
    INDEX 01 00:01:16
  TRACK 03 AUDIO
    TITLE "8:cjc174_3035"
    INDEX 01 00:01:61
  TRACK 04 AUDIO
    TITLE "0:"
    INDEX 01 00:05:04
  TRACK 05 AUDIO
    TITLE "7:cjc174_3036"
    INDEX 01 00:05:49
  TRACK 06 AUDIO
    TITLE "0:"
    INDEX 01 00:06:62
  TRACK 07 AUDIO
    TITLE "8:cjc174_3037"
    INDEX 01 00:07:34
  TRACK 08 AUDIO
    TITLE "0:"
    INDEX 01 00:08:45
  TRACK 09 AUDIO
    TITLE "7:cjc174_3038"
    INDEX 01 00:09:15
  TRACK 10 AUDIO
    TITLE "0:"
    INDEX 01 00:10:20
  TRACK 11 AUDIO
    TITLE "8:cjc174_3039"
    INDEX 01 00:10:69
  TRACK 12 AUDIO
    TITLE "0:"
    INDEX 01 00:12:74
  TRACK 13 AUDIO
    TITLE "7:cjc174_3040"
    INDEX 01 00:13:44
  TRACK 14 AUDIO
    TITLE "0:"
    INDEX 01 00:14:57
  TRACK 15 AUDIO
    TITLE "8:cjc174_3041"
    INDEX 01 00:15:29
  TRACK 16 AUDIO
    TITLE "0:"
    INDEX 01 00:17:26
  TRACK 17 AUDIO
    TITLE "7:cjc174_3042"
    INDEX 01 00:17:71
  TRACK 18 AUDIO
    TITLE "0:"
    INDEX 01 00:19:10
  TRACK 19 AUDIO
    TITLE "8:cjc174_3043"
    INDEX 01 00:19:63
  TRACK 20 AUDIO
    TITLE "0:"
    INDEX 01 00:23:43
  TRACK 21 AUDIO
    TITLE "7:cjc174_3044"
    INDEX 01 00:24:13
  TRACK 22 AUDIO
    TITLE "0:"
    INDEX 01 00:25:28
  TRACK 23 AUDIO
    TITLE "8:cjc174_3045"
    INDEX 01 00:26:06
  TRACK 24 AUDIO
    TITLE "0:"
    INDEX 01 00:29:04
  TRACK 25 AUDIO
    TITLE "7:cjc174_3046"
    INDEX 01 00:29:49
  TRACK 26 AUDIO
    TITLE "0:"
    INDEX 01 00:30:56
  TRACK 27 AUDIO
    TITLE "8:cjc174_3047"
    INDEX 01 00:31:28
  TRACK 28 AUDIO
    TITLE "0:"
    INDEX 01 00:33:39
  TRACK 29 AUDIO
    TITLE "7:cjc174_3048"
    INDEX 01 00:34:11
  TRACK 30 AUDIO
    TITLE "0:"
    INDEX 01 00:35:28
  TRACK 31 AUDIO
    TITLE "8:cjc174_3049"
    INDEX 01 00:36:04
  TRACK 32 AUDIO
    TITLE "0:"
    INDEX 01 00:38:44
  TRACK 33 AUDIO
    TITLE "7:cjc174_3050"
    INDEX 01 00:39:12
  TRACK 34 AUDIO
    TITLE "0:"
    INDEX 01 00:40:47
  TRACK 35 AUDIO
    TITLE "8:cjc174_3051"
    INDEX 01 00:41:21
  TRACK 36 AUDIO
    TITLE "0:"
    INDEX 01 00:42:44
  TRACK 37 AUDIO
    TITLE "7:cjc174_3052"
    INDEX 01 00:43:18
  TRACK 38 AUDIO
    TITLE "0:"
    INDEX 01 00:44:47
  TRACK 39 AUDIO
    TITLE "8:cjc174_3053"
    INDEX 01 00:45:21
  TRACK 40 AUDIO
    TITLE "0:"
    INDEX 01 00:47:53
  TRACK 41 AUDIO
    TITLE "7:cjc174_3054"
    INDEX 01 00:48:23
  TRACK 42 AUDIO
    TITLE "0:"
    INDEX 01 00:49:38
  TRACK 43 AUDIO
    TITLE "8:cjc174_3055"
    INDEX 01 00:50:08
  TRACK 44 AUDIO
    TITLE "0:"
    INDEX 01 00:52:38
  TRACK 45 AUDIO
    TITLE "7:cjc174_3056"
    INDEX 01 00:53:09
  TRACK 46 AUDIO
    TITLE "0:"
    INDEX 01 00:54:04
  TRACK 47 AUDIO
    TITLE "8:cjc174_3057"
    INDEX 01 00:54:53
  TRACK 48 AUDIO
    TITLE "0:"
    INDEX 01 00:56:75
  TRACK 49 AUDIO
    TITLE "7:cjc174_3058"
    INDEX 01 00:57:46
  TRACK 50 AUDIO
    TITLE "0:"
    INDEX 01 00:58:55
  TRACK 51 AUDIO
    TITLE "8:cjc174_3059"
    INDEX 01 00:59:25
  TRACK 52 AUDIO
    TITLE "0:"
    INDEX 01 01:04:08
  TRACK 53 AUDIO
    TITLE "7:cjc174_3060"
    INDEX 01 01:04:51
  TRACK 54 AUDIO
    TITLE "0:"
    INDEX 01 01:06:17
  TRACK 55 AUDIO
    TITLE "8:cjc174_3061"
    INDEX 01 01:06:72
  TRACK 56 AUDIO
    TITLE "0:"
    INDEX 01 01:09:55
  TRACK 57 AUDIO
    TITLE "7:cjc174_3062"
    INDEX 01 01:10:25
  TRACK 58 AUDIO
    TITLE "0:"
    INDEX 01 01:11:59
  TRACK 59 AUDIO
    TITLE "8:cjc174_3063"
    INDEX 01 01:12:33
  TRACK 60 AUDIO
    TITLE "0:"
    INDEX 01 01:15:14
  TRACK 61 AUDIO
    TITLE "7:cjc174_3064"
    INDEX 01 01:15:59
  TRACK 62 AUDIO
    TITLE "0:"
    INDEX 01 01:16:62
  TRACK 63 AUDIO
    TITLE "8:cjc174_3065"
    INDEX 01 01:17:42
  TRACK 64 AUDIO
    TITLE "0:"
    INDEX 01 01:18:50
  TRACK 65 AUDIO
    TITLE "7:cjc174_3066"
    INDEX 01 01:19:20
  TRACK 66 AUDIO
    TITLE "0:"
    INDEX 01 01:20:41
  TRACK 67 AUDIO
    TITLE "8:cjc174_3067"
    INDEX 01 01:21:13
  TRACK 68 AUDIO
    TITLE "0:"
    INDEX 01 01:22:40
  TRACK 69 AUDIO
    TITLE "7:cjc174_3068"
    INDEX 01 01:23:10
  TRACK 70 AUDIO
    TITLE "0:"
    INDEX 01 01:23:72
  TRACK 71 AUDIO
    TITLE "8:cjc174_3069"
    INDEX 01 01:24:54
  TRACK 72 AUDIO
    TITLE "0:"
    INDEX 01 01:27:11
